<?xml version="1.0" standalone="no"?><!DOCTYPE svg PUBLIC "-//W3C//DTD SVG 1.1//EN" "http://www.w3.org/Graphics/SVG/1.1/DTD/svg11.dtd"><svg class="icon" width="32px" height="32.00px" viewBox="0 0 1024 1024" version="1.1" xmlns="http://www.w3.org/2000/svg"><path fill="#2c2c2c" d="M126 192.5h772M898 227.5H126c-19.3 0-35-15.7-35-35s15.7-35 35-35h772c19.3 0 35 15.7 35 35s-15.7 35-35 35zM126 511.5h772M898 546.5H126c-19.3 0-35-15.7-35-35s15.7-35 35-35h772c19.3 0 35 15.7 35 35s-15.7 35-35 35zM126 830.5h772M898 865.5H126c-19.3 0-35-15.7-35-35s15.7-35 35-35h772c19.3 0 35 15.7 35 35s-15.7 35-35 35z" /></svg>